<svg width="24" height="24" viewBox="0 0 24 24" fill="none" xmlns="http://www.w3.org/2000/svg">
<g clip-path="url(#clip0_231_579)">
<path d="M12.3 0.755859C5.94883 0.755859 0.800049 5.90464 0.800049 12.2559C0.800049 17.6489 4.51317 22.1744 9.52211 23.4173V15.7703H7.15081V12.2559H9.52211V10.7415C9.52211 6.8274 11.2936 5.01316 15.1364 5.01316C15.8651 5.01316 17.1222 5.15622 17.6365 5.29882V8.48432C17.3651 8.4558 16.8936 8.44154 16.308 8.44154C14.4225 8.44154 13.6938 9.15592 13.6938 11.0129V12.2559H17.4502L16.8048 15.7703H13.6938V23.6717C19.3882 22.984 23.8005 18.1356 23.8005 12.2559C23.8001 5.90464 18.6513 0.755859 12.3 0.755859Z" fill="#FE5065"/>
</g>
<defs>
<clipPath id="clip0_231_579">
<rect width="23" height="23" fill="white" transform="translate(0.800049 0.755859)"/>
</clipPath>
</defs>
</svg>
