<svg width="24" height="24" viewBox="0 0 24 24" fill="none" xmlns="http://www.w3.org/2000/svg">
<g clip-path="url(#clip0_231_578)">
<path d="M11.7 2.82676C14.7726 2.82676 15.1365 2.84023 16.3449 2.89414C17.4679 2.94355 18.0744 3.13223 18.4787 3.28945C19.0132 3.49609 19.3996 3.74766 19.7994 4.14746C20.2037 4.55176 20.4507 4.93359 20.6574 5.46816C20.8146 5.87246 21.0033 6.4834 21.0527 7.60195C21.1066 8.81484 21.1201 9.17871 21.1201 12.2469C21.1201 15.3195 21.1066 15.6834 21.0527 16.8918C21.0033 18.0148 20.8146 18.6213 20.6574 19.0256C20.4507 19.5602 20.1992 19.9465 19.7994 20.3463C19.3951 20.7506 19.0132 20.9977 18.4787 21.2043C18.0744 21.3615 17.4634 21.5502 16.3449 21.5996C15.132 21.6535 14.7681 21.667 11.7 21.667C8.6273 21.667 8.26343 21.6535 7.05503 21.5996C5.93198 21.5502 5.32554 21.3615 4.92124 21.2043C4.38667 20.9977 4.00034 20.7461 3.60054 20.3463C3.19624 19.942 2.94917 19.5602 2.74253 19.0256C2.5853 18.6213 2.39663 18.0104 2.34722 16.8918C2.29331 15.6789 2.27983 15.315 2.27983 12.2469C2.27983 9.17422 2.29331 8.81035 2.34722 7.60195C2.39663 6.47891 2.5853 5.87246 2.74253 5.46816C2.94917 4.93359 3.20073 4.54727 3.60054 4.14746C4.00483 3.74316 4.38667 3.49609 4.92124 3.28945C5.32554 3.13223 5.93648 2.94355 7.05503 2.89414C8.26343 2.84023 8.6273 2.82676 11.7 2.82676ZM11.7 0.755859C8.57788 0.755859 8.18706 0.769336 6.96069 0.823242C5.73882 0.877148 4.89878 1.0748 4.17105 1.35781C3.41187 1.6543 2.76948 2.04512 2.13159 2.6875C1.48921 3.32539 1.09839 3.96777 0.801904 4.72246C0.518896 5.45469 0.32124 6.29023 0.267334 7.51211C0.213428 8.74297 0.199951 9.13379 0.199951 12.2559C0.199951 15.3779 0.213428 15.7688 0.267334 16.9951C0.32124 18.217 0.518896 19.057 0.801904 19.7848C1.09839 20.5439 1.48921 21.1863 2.13159 21.8242C2.76948 22.4621 3.41187 22.8574 4.16655 23.1494C4.89878 23.4324 5.73433 23.6301 6.9562 23.684C8.18257 23.7379 8.57339 23.7514 11.6955 23.7514C14.8175 23.7514 15.2084 23.7379 16.4347 23.684C17.6566 23.6301 18.4966 23.4324 19.2244 23.1494C19.9791 22.8574 20.6214 22.4621 21.2593 21.8242C21.8972 21.1863 22.2925 20.5439 22.5845 19.7893C22.8675 19.057 23.0652 18.2215 23.1191 16.9996C23.173 15.7732 23.1865 15.3824 23.1865 12.2604C23.1865 9.13828 23.173 8.74746 23.1191 7.52109C23.0652 6.29922 22.8675 5.45918 22.5845 4.73145C22.3015 3.96777 21.9107 3.32539 21.2683 2.6875C20.6304 2.04961 19.988 1.6543 19.2334 1.3623C18.5011 1.0793 17.6656 0.881641 16.4437 0.827734C15.2128 0.769336 14.822 0.755859 11.7 0.755859Z" fill="#FE5065"/>
<path d="M11.7 6.34863C8.43862 6.34863 5.79272 8.99453 5.79272 12.2559C5.79272 15.5172 8.43862 18.1631 11.7 18.1631C14.9613 18.1631 17.6072 15.5172 17.6072 12.2559C17.6072 8.99453 14.9613 6.34863 11.7 6.34863ZM11.7 16.0877C9.58413 16.0877 7.86811 14.3717 7.86811 12.2559C7.86811 10.14 9.58413 8.42402 11.7 8.42402C13.8158 8.42402 15.5318 10.14 15.5318 12.2559C15.5318 14.3717 13.8158 16.0877 11.7 16.0877Z" fill="#FE5065"/>
<path d="M19.2199 6.11494C19.2199 6.87862 18.6 7.49405 17.8408 7.49405C17.0771 7.49405 16.4617 6.87412 16.4617 6.11494C16.4617 5.35127 17.0816 4.73584 17.8408 4.73584C18.6 4.73584 19.2199 5.35576 19.2199 6.11494Z" fill="#FE5065"/>
</g>
<defs>
<clipPath id="clip0_231_578">
<rect width="23" height="23" fill="white" transform="translate(0.199951 0.755859)"/>
</clipPath>
</defs>
</svg>
