<svg width="23" height="24" viewBox="0 0 23 24" fill="none" xmlns="http://www.w3.org/2000/svg">
<g clip-path="url(#clip0_231_576)">
<path d="M16.3613 0.755859H12.4851V16.4225C12.4851 18.2892 10.9943 19.8225 9.139 19.8225C7.28374 19.8225 5.79291 18.2892 5.79291 16.4225C5.79291 14.5892 7.25061 13.0892 9.03963 13.0225V9.08921C5.09719 9.15584 1.91675 12.3892 1.91675 16.4225C1.91675 20.4892 5.16344 23.7559 9.17214 23.7559C13.1808 23.7559 16.4275 20.4559 16.4275 16.4225V8.38918C17.8852 9.45586 19.6742 10.0892 21.5626 10.1225V6.18919C18.6472 6.0892 16.3613 3.68919 16.3613 0.755859Z" fill="#FE5065"/>
</g>
<defs>
<clipPath id="clip0_231_576">
<rect width="23" height="23" fill="white" transform="translate(0 0.755859)"/>
</clipPath>
</defs>
</svg>
