<svg width="24" height="24" viewBox="0 0 24 24" fill="none" xmlns="http://www.w3.org/2000/svg">
<g clip-path="url(#clip0_231_577)">
<path d="M23.371 7.65596C23.371 7.65596 23.1464 6.07021 22.4546 5.37393C21.5786 4.45752 20.5993 4.45303 20.1501 4.39912C16.9337 4.16553 12.1046 4.16553 12.1046 4.16553H12.0956C12.0956 4.16553 7.2665 4.16553 4.0501 4.39912C3.60088 4.45303 2.62158 4.45752 1.74561 5.37393C1.05381 6.07021 0.833691 7.65596 0.833691 7.65596C0.833691 7.65596 0.600098 9.52022 0.600098 11.38V13.1229C0.600098 14.9827 0.829199 16.847 0.829199 16.847C0.829199 16.847 1.05381 18.4327 1.74111 19.129C2.61709 20.0454 3.76709 20.014 4.2792 20.1128C6.121 20.288 12.1001 20.3419 12.1001 20.3419C12.1001 20.3419 16.9337 20.3329 20.1501 20.1038C20.5993 20.0499 21.5786 20.0454 22.4546 19.129C23.1464 18.4327 23.371 16.847 23.371 16.847C23.371 16.847 23.6001 14.9872 23.6001 13.1229V11.38C23.6001 9.52022 23.371 7.65596 23.371 7.65596ZM9.72373 15.2388V8.77451L15.9364 12.0179L9.72373 15.2388Z" fill="#FE5065"/>
</g>
<defs>
<clipPath id="clip0_231_577">
<rect width="23" height="23" fill="white" transform="translate(0.600098 0.755859)"/>
</clipPath>
</defs>
</svg>
